<?xml version="1.0" encoding="utf-8"?>
<svg width="100px" height="100px" viewBox="0 0 100 100" version="1.1" xmlns:xlink="http://www.w3.org/1999/xlink" xmlns="http://www.w3.org/2000/svg">
  <defs>
    <path d="M0 0L100 0L100 100L0 100L0 0Z" id="path_1" />
    <clipPath id="mask_1">
      <use xlink:href="#path_1" />
    </clipPath>
  </defs>
  <g id="benzinga-vector-logo">
    <path d="M0 0L100 0L100 100L0 100L0 0Z" id="Background" fill="#FFFFFF" fill-opacity="0" fill-rule="evenodd" stroke="none" />
    <g clip-path="url(#mask_1)">
      <path d="M16.5184 55.4601L25.3528 55.4601L25.3528 53.1288L19.1871 53.1288L19.1871 50.2761L24.2945 50.2761L24.2945 47.9448L19.1871 47.9448L19.1871 45.3068L25.3834 45.3068L25.3834 42.9755L16.5184 42.9755L16.5184 55.4601L16.5184 55.4601ZM35.9816 50.8282L30.1994 42.9755L26.2117 42.9755L27.454 44.5552L27.454 55.4908L30.1227 55.4908L30.1227 47.3006L36.1043 55.4601L38.6503 55.4601L38.6503 42.9755L35.9816 42.9755L35.9816 50.8282L35.9816 50.8282ZM12.4847 49.0337C13.6503 48.8037 14.6319 47.7147 14.6319 46.181C14.6166 44.5245 13.4202 42.9755 11.0123 42.9755L3.26688 42.9755L4.4632 44.5092L4.4632 55.4601L11.273 55.4601C13.681 55.4601 14.9233 53.9571 14.9233 52.0706C14.8926 50.5368 13.8344 49.2178 12.4847 49.0337L12.4847 49.0337ZM7.14725 45.3221L10.4908 45.3221C11.3957 45.3221 11.9632 45.8436 11.9632 46.6411C11.9632 47.4233 11.3957 47.9601 10.4908 47.9601L7.14725 47.9601L7.14725 45.3221L7.14725 45.3221ZM10.6135 53.1442L7.16257 53.1442L7.16257 50.2761L10.6135 50.2761C11.6258 50.2761 12.1932 50.9203 12.1932 51.7025C12.1932 52.6074 11.5951 53.1289 10.6135 53.1442L10.6135 53.1442L10.6135 53.1442ZM77.7147 50.8282L79.1104 50.8282L79.1104 52.3006C78.3896 52.8988 77.4847 53.2209 76.5491 53.2362C74.3252 53.2362 72.7454 51.5491 72.7454 49.2485C72.7454 46.9632 74.3252 45.2607 76.5491 45.2607C77.7147 45.2761 78.7884 45.8589 79.4019 46.8405L81.5031 45.6749C80.5982 44.2485 79.0184 42.9755 76.5031 42.9755C72.9755 42.9755 70.0307 45.4141 70.0307 49.2178C70.0307 53.0215 72.9295 55.4601 76.5031 55.4601C78.4509 55.4908 80.3221 54.6626 81.6104 53.2055L81.6104 48.589L75.9203 48.589L77.7147 50.8282L77.7147 50.8282ZM65.6902 50.8282L59.8926 42.9755L55.9049 42.9755L57.1472 44.5552L57.1472 55.4908L59.816 55.4908L59.816 47.3006L65.7975 55.4601L68.3589 55.4601L68.3589 42.9755L65.6902 42.9755L65.6902 50.8282L65.6902 50.8282ZM90.4601 42.9755L85.3068 42.9755L86.5491 44.5552L86.319 45.1534L82.3313 55.4908L85.3374 55.4908L86.1196 53.3896L91.5031 53.3896L92.2853 55.4908L95.2914 55.4908L90.4601 42.9755L90.4601 42.9755ZM86.8252 51.0276L88.773 45.6442L90.7209 51.0276L86.8252 51.0276L86.8252 51.0276ZM51.7025 42.9755L54.3712 42.9755L54.3712 55.4908L51.7025 55.4908L51.7025 42.9755L51.7025 42.9755ZM49.5552 45.1227L49.5552 42.9755L40.1534 42.9755L40.1534 45.3068L46.0583 45.3068L40.1534 53.3129L40.1534 55.4601L49.6626 55.4601L49.6626 53.1288L43.6043 53.1288L49.5552 45.1227L49.5552 45.1227Z" id="Shape" fill="#848484" fill-rule="evenodd" stroke="none" />
    </g>
  </g>
</svg>