<?xml version="1.0" encoding="utf-8"?>
<svg width="2150px" height="1300px" viewBox="0 0 2150 1300" version="1.1" xmlns:xlink="http://www.w3.org/1999/xlink" xmlns="http://www.w3.org/2000/svg">
  <defs>
    <path d="M0 0L2150 0L2150 1300L0 1300L0 0Z" id="path_1" />
    <clipPath id="mask_1">
      <use xlink:href="#path_1" />
    </clipPath>
  </defs>
  <g id="Future-Africa-Black@1x">
    <path d="M0 0L2150 0L2150 1300L0 1300L0 0Z" id="Background" fill="#FFFFFF" fill-opacity="0" fill-rule="evenodd" stroke="none" />
    <g clip-path="url(#mask_1)">
      <g id="Future-Africa-Black" transform="translate(405.08447 501.5806)">
        <g id="Group">
          <g id="Group-2" transform="translate(350.264 51.20047)">
            <g id="Group-9-Copy">
              <path d="M455.068 33.0313C475.993 33.0313 489.294 44.988 489.294 66.2111L489.294 70.8442L437.283 70.8442C437.582 91.7684 447.595 102.679 461.495 102.679C474.349 102.679 481.672 95.6543 486.754 86.8362L489.593 88.1814C484.512 101.035 474.349 111.796 454.919 111.796C432.65 111.796 416.508 96.2521 416.508 73.3851C416.508 47.6782 433.247 33.0313 455.068 33.0313L455.068 33.0313ZM121.388 34.8248L121.388 86.089C121.388 96.5511 125.424 102.679 134.541 102.679C141.715 102.679 147.095 99.0919 151.28 93.4124L151.28 42.1483L140.669 36.0205L140.669 34.8248L170.71 34.8248L170.71 102.679L180.424 108.807L180.424 110.002L155.017 110.002L151.579 97.4478C146.199 105.07 138.277 111.796 126.321 111.796C110.478 111.796 101.959 102.978 101.959 87.4341L101.959 42.1483L91.3474 36.0205L91.3474 34.8248L121.388 34.8248L121.388 34.8248ZM277.031 34.8248L277.031 86.089C277.031 96.5511 281.067 102.679 290.184 102.679C297.358 102.679 302.738 99.0919 306.923 93.4124L306.923 42.1483L296.312 36.0205L296.312 34.8248L326.353 34.8248L326.353 102.679L336.067 108.807L336.067 110.002L310.66 110.002L307.222 97.4478C301.841 105.07 293.92 111.796 281.964 111.796C266.121 111.796 257.602 102.978 257.602 87.4341L257.602 42.1483L246.99 36.0205L246.99 34.8248L277.031 34.8248L277.031 34.8248ZM218.565 14.0501L218.565 34.8248L241.133 34.8248L241.133 38.1129L218.565 38.1129L218.565 90.8716C218.565 98.9424 221.405 103.426 227.233 103.426C231.418 103.426 235.005 101.184 238.293 95.6543L241.133 97.1489C236.649 106.415 230.073 111.796 218.864 111.796C206.01 111.796 199.135 104.323 199.135 93.263L199.135 38.1129L187.926 38.1129L187.926 35.1237L197.94 32.2841L217.519 14.0501L218.565 14.0501L218.565 14.0501ZM951.445 33.0303C971.323 33.0303 979.842 42.7451 979.842 55.1501L979.842 102.678L989.557 108.806L989.557 110.001L964.149 110.001L960.712 97.7457C954.883 106.564 946.363 111.795 936.35 111.795C924.991 111.795 912.138 107.012 912.138 90.7211C912.138 78.3161 922.6 71.8894 934.706 69.0497L936.984 68.4894C940.976 67.5074 944.942 66.5303 948.742 65.5831L950.798 65.0696C954.195 64.2192 957.434 63.3973 960.412 62.623L960.412 51.2642C960.412 41.8483 956.826 36.3184 948.456 36.3184C945.915 36.3184 943.075 36.6172 939.19 37.9624L920.806 61.7263L919.61 61.7263L918.564 36.7667C930.67 34.3754 940.834 33.0303 951.445 33.0303L951.445 33.0303ZM873.74 33.0303C883.455 33.0303 891.974 34.5248 901.689 36.6172L900.643 62.7725L899.447 62.7725L882.558 37.9624C879.868 36.9162 877.477 36.3184 874.787 36.3184C865.371 36.3184 855.208 47.0793 855.208 69.9464C855.208 92.0662 866.118 102.977 878.972 102.977C891.227 102.977 898.102 95.9521 902.735 87.5825L905.575 88.9276C900.942 100.884 891.526 111.645 872.246 111.795C850.425 111.944 834.433 96.4005 834.433 72.4872C834.433 47.2288 851.77 33.0303 873.74 33.0303L873.74 33.0303ZM397.374 33.6292C401.11 33.6292 403.8 33.9281 407.836 34.8248L407.089 58.7382L405.893 58.7382L391.395 41.1021C385.417 42.7461 380.933 46.931 377.496 53.2082L377.496 102.978L390.947 108.807L390.947 110.002L348.351 110.002L348.351 108.807L358.066 102.978L358.066 42.1483L347.455 36.0205L347.455 34.8248L373.759 34.8248L377.496 48.2761C382.129 39.6075 388.705 33.6292 397.374 33.6292L397.374 33.6292ZM86.0879 5.38159L86.0879 34.0775L84.5933 34.0775L66.0605 8.96857L32.5819 8.96857L32.5819 56.4963L50.9652 56.4963L67.7046 47.5287L69.1992 47.5287L69.1992 69.0507L67.7046 69.0507L50.9652 60.0832L32.5819 60.0832L32.5819 101.782L46.7804 108.508L46.7804 110.002L0 110.002L0 108.508L11.9567 101.782L11.9567 13.6017L0 6.87616L0 5.38159L86.0879 5.38159L86.0879 5.38159ZM817.722 34.8237L817.722 102.977L827.437 108.806L827.437 110.001L788.578 110.001L788.578 108.806L798.292 102.977L798.292 42.1472L787.681 36.0194L787.681 34.8237L817.722 34.8237L817.722 34.8237ZM765.682 33.6281C769.418 33.6281 772.109 33.927 776.144 34.8237L775.397 58.7371L774.201 58.7371L759.704 41.101C753.725 42.7451 749.242 46.9299 745.804 53.2071L745.804 102.977L759.255 108.806L759.255 110.001L716.66 110.001L716.66 108.806L726.374 102.977L726.374 42.1472L715.763 36.0194L715.763 34.8237L742.068 34.8237L745.804 48.275C750.437 39.6064 757.013 33.6281 765.682 33.6281L765.682 33.6281ZM692.693 3.58698C700.316 3.58698 705.248 4.33429 713.318 5.67938L712.272 27.9487L711.077 27.9487L697.625 7.17401C696.43 7.02454 695.383 6.87506 694.487 6.87506C688.658 6.87506 685.37 10.9105 685.37 20.6252L685.37 34.8237L708.835 34.8237L708.835 38.1118L685.37 38.1118L685.37 102.977L698.821 108.806L698.821 110.001L656.225 110.001L656.225 108.806L665.94 102.977L665.94 38.1118L654.432 38.1118L654.432 34.8237L665.94 34.8237L665.94 29.4432C665.94 11.8072 676.103 3.58698 692.693 3.58698L692.693 3.58698ZM600.001 5.38049L638.112 101.333L648.873 108.507L648.873 110.001L604.634 110.001L604.634 108.507L617.039 101.93L605.232 72.1883L565.476 72.1883L555.911 97.2973L573.845 108.507L573.845 110.001L539.022 110.001L539.022 108.507L552.174 96.8489L583.112 15.8426L579.077 7.02454L579.077 5.38049L600.001 5.38049L600.001 5.38049ZM960.412 65.4627C954.883 67.1068 949.353 68.7508 945.018 70.2454C935.901 73.5334 931.717 79.6612 931.717 88.1804C931.717 97.5962 937.246 103.425 944.869 103.425C950.548 103.425 955.63 100.286 960.412 93.7103L960.412 65.4627L960.412 65.4627ZM585.055 20.7747L566.821 68.6013L603.887 68.6013L585.055 20.7747L585.055 20.7747ZM455.218 36.3194C445.204 36.3194 437.731 46.4825 437.283 67.5562L469.865 67.5562L469.865 64.4175C469.566 44.988 464.933 36.3194 455.218 36.3194L455.218 36.3194ZM807.26 0L819.964 12.405L807.26 24.8101L794.855 12.405L807.26 0L807.26 0Z" id="Combined-Shape" fill="#848484" fill-rule="evenodd" stroke="none" />
            </g>
            <path d="M6.39771 197.306L6.39771 185.576L16.0026 185.576L16.0026 181.039L6.39771 181.039L6.39771 172.823L17.801 172.823L17.801 168.287L1.12518 168.287L1.12518 197.306L6.39771 197.306L6.39771 197.306ZM53.1603 197.796C60.1494 197.796 64.8497 193.382 64.8497 186.883L64.8497 168.287L59.5771 168.287L59.5771 186.843C59.5771 190.766 57.0023 192.973 53.1194 192.973C49.2366 192.973 46.7025 190.766 46.7025 186.883L46.7025 168.287L41.4301 168.287L41.4301 186.883C41.4301 193.382 46.1303 197.796 53.1603 197.796L53.1603 197.796ZM96.1627 197.306L96.1627 180.589C96.1627 180.056 96.1351 179.421 96.0971 178.799L96.0704 178.387C95.9868 177.164 95.8766 176.093 95.8766 176.093L95.9583 176.093C95.9583 176.093 97.2662 178.913 98.3698 180.589L109.364 197.306L114.596 197.306L114.596 168.287L109.364 168.287L109.364 185.044C109.364 186.228 109.5 187.917 109.585 188.852L109.608 189.108C109.634 189.378 109.65 189.54 109.65 189.54L109.569 189.54C109.569 189.54 108.261 186.72 107.157 185.044L96.1627 168.287L90.8902 168.287L90.8902 197.306L96.1627 197.306L96.1627 197.306ZM150.936 197.306C159.887 197.306 165.732 191.911 165.732 182.755C165.732 173.6 159.887 168.287 150.936 168.287L141.045 168.287L141.045 197.306L150.936 197.306L150.936 197.306ZM150.65 192.769L146.318 192.769L146.318 172.823L150.65 172.823C156.454 172.823 160.296 176.298 160.296 182.755C160.296 189.295 156.536 192.769 150.65 192.769L150.65 192.769ZM224.638 197.306L224.638 185.576L234.243 185.576L234.243 181.039L224.638 181.039L224.638 172.823L236.042 172.823L236.042 168.287L219.366 168.287L219.366 197.306L224.638 197.306L224.638 197.306ZM273.077 197.796C281.619 197.796 288.077 191.134 288.077 182.592C288.077 174.295 281.619 167.796 273.077 167.796C264.535 167.796 258.077 174.295 258.077 182.592C258.077 191.134 264.535 197.796 273.077 197.796L273.077 197.796ZM273.077 192.973C267.763 192.973 263.513 188.559 263.513 182.592C263.513 176.87 267.763 172.619 273.077 172.619C278.39 172.619 282.641 176.87 282.641 182.592C282.641 188.559 278.39 192.973 273.077 192.973L273.077 192.973ZM317.796 197.306L317.796 186.475L322.864 186.475L328.627 197.306L334.512 197.306L328.545 186.475C327.973 185.453 327.564 185.044 327.564 185.044L327.564 184.962C330.63 183.736 332.469 180.507 332.469 177.033C332.469 173.191 330.63 170.412 327.728 169.104C326.461 168.532 325.03 168.287 321.883 168.287L312.523 168.287L312.523 197.306L317.796 197.306L317.796 197.306ZM322.537 181.897L317.796 181.897L317.796 172.823L321.801 172.823C325.929 172.823 327.115 174.54 327.115 177.319C327.115 180.221 325.357 181.897 322.537 181.897L322.537 181.897ZM389.332 197.306L391.784 189.867L401.961 189.867L404.414 197.306L409.85 197.306L399.632 168.287L394.114 168.287L383.896 197.306L389.332 197.306L389.332 197.306ZM400.653 185.576L393.051 185.576L395.626 177.81C395.764 177.415 395.907 176.949 396.045 176.469L396.161 176.056C396.541 174.675 396.852 173.314 396.852 173.314L396.934 173.314C396.934 173.314 397.226 174.675 397.581 176.056L397.689 176.469C397.817 176.949 397.95 177.415 398.078 177.81L400.653 185.576L400.653 185.576ZM437.934 197.306L437.934 185.576L447.539 185.576L447.539 181.039L437.934 181.039L437.934 172.823L449.337 172.823L449.337 168.287L432.661 168.287L432.661 197.306L437.934 197.306L437.934 197.306ZM478.647 197.306L478.647 186.475L483.715 186.475L489.478 197.306L495.364 197.306L489.397 186.475C488.824 185.453 488.416 185.044 488.416 185.044L488.416 184.962C491.481 183.736 493.32 180.507 493.32 177.033C493.32 173.191 491.481 170.412 488.579 169.104C487.312 168.532 485.882 168.287 482.734 168.287L473.375 168.287L473.375 197.306L478.647 197.306L478.647 197.306ZM483.389 181.897L478.647 181.897L478.647 172.823L482.653 172.823C486.781 172.823 487.966 174.54 487.966 177.319C487.966 180.221 486.209 181.897 483.389 181.897L483.389 181.897ZM524.633 197.306L524.633 168.287L519.361 168.287L519.361 197.306L524.633 197.306L524.633 197.306ZM564.08 197.796C571.478 197.796 575.483 193.096 575.483 193.096L572.704 189.295C572.704 189.295 572.678 189.323 572.628 189.373L572.535 189.466C571.791 190.192 568.656 192.973 564.284 192.973C558.235 192.973 554.516 188.11 554.516 182.592C554.516 177.197 558.113 172.619 564.243 172.619C568.862 172.619 572.172 175.685 572.172 175.685L574.707 171.761C574.707 171.761 574.695 171.748 574.672 171.724L574.61 171.662C573.99 171.048 570.402 167.796 563.998 167.796C555.456 167.796 549.08 174.254 549.08 182.674C549.08 191.216 555.211 197.796 564.08 197.796L564.08 197.796ZM601.238 197.306L603.69 189.867L613.867 189.867L616.319 197.306L621.755 197.306L611.537 168.287L606.02 168.287L595.802 197.306L601.238 197.306L601.238 197.306ZM612.559 185.576L604.957 185.576L607.532 177.81C608.104 176.175 608.758 173.314 608.758 173.314L608.84 173.314C608.84 173.314 609.453 176.175 609.984 177.81L612.559 185.576L612.559 185.576ZM645.507 176.747L648.532 167.796L643.75 167.796L641.828 176.747L645.507 176.747L645.507 176.747ZM680.049 197.796C686.098 197.796 689.613 193.913 689.613 189.295C689.613 180.017 675.962 181.284 675.962 176.134C675.962 174.09 677.883 172.66 680.335 172.66C683.973 172.66 686.752 175.194 686.752 175.194L689.041 170.902L689.037 170.898L688.974 170.836C688.508 170.386 685.6 167.796 680.376 167.796C674.817 167.796 670.648 171.393 670.648 176.216C670.648 185.126 684.34 184.227 684.34 189.417C684.34 191.788 682.338 192.932 680.131 192.932C676.044 192.932 672.896 189.867 672.896 189.867L670.035 193.832C670.035 193.832 673.591 197.796 680.049 197.796L680.049 197.796ZM748.274 197.306L748.274 185.576L757.879 185.576L757.879 181.039L748.274 181.039L748.274 172.823L759.678 172.823L759.678 168.287L743.002 168.287L743.002 197.306L748.274 197.306L748.274 197.306ZM795.037 197.796C802.026 197.796 806.726 193.382 806.726 186.883L806.726 168.287L801.454 168.287L801.454 186.843C801.454 190.766 798.879 192.973 794.996 192.973C791.113 192.973 788.579 190.766 788.579 186.883L788.579 168.287L783.307 168.287L783.307 186.883C783.307 193.382 788.007 197.796 795.037 197.796L795.037 197.796ZM844.048 197.306L844.048 172.823L853.571 172.823L853.571 168.287L829.252 168.287L829.252 172.823L838.775 172.823L838.775 197.306L844.048 197.306L844.048 197.306ZM887.827 197.796C894.816 197.796 899.516 193.382 899.516 186.883L899.516 168.287L894.243 168.287L894.243 186.843C894.243 190.766 891.669 192.973 887.786 192.973C883.903 192.973 881.369 190.766 881.369 186.883L881.369 168.287L876.096 168.287L876.096 186.883C876.096 193.382 880.797 197.796 887.827 197.796L887.827 197.796ZM930.829 197.306L930.829 186.475L935.897 186.475L941.66 197.306L947.546 197.306L941.578 186.475C941.006 185.453 940.597 185.044 940.597 185.044L940.597 184.962C943.663 183.736 945.502 180.507 945.502 177.033C945.502 173.191 943.663 170.412 940.761 169.104C939.494 168.532 938.063 168.287 934.916 168.287L925.557 168.287L925.557 197.306L930.829 197.306L930.829 197.306ZM935.57 181.897L930.829 181.897L930.829 172.823L934.834 172.823C938.963 172.823 940.148 174.54 940.148 177.319C940.148 180.221 938.39 181.897 935.57 181.897L935.57 181.897ZM989.567 197.306L989.567 192.769L976.815 192.769L976.815 184.962L986.583 184.962L986.583 180.426L976.815 180.426L976.815 172.823L988.913 172.823L988.913 168.287L971.542 168.287L971.542 197.306L989.567 197.306L989.567 197.306Z" id="FUNDFORAFRICA’SFUTURE" fill="#848484" fill-rule="evenodd" stroke="none" />
          </g>
          <g id="Group-Copy-2">
            <path d="M148.419 234.824C156.323 244.079 160.275 254.415 160.275 265.831C160.275 277.248 156.323 287.584 148.419 296.839C140.516 287.584 136.564 277.248 136.564 265.831C136.564 254.415 140.516 244.079 148.419 234.824L148.419 234.824ZM209.516 209.516C221.65 210.472 231.753 214.986 239.825 223.059C247.898 231.132 252.412 241.235 253.368 253.368C241.235 252.412 231.132 247.898 223.059 239.825C214.986 231.753 210.472 221.65 209.516 209.516L209.516 209.516ZM87.3224 209.516C86.3669 221.65 81.8528 231.753 73.78 239.825C65.7072 247.898 55.6042 252.412 43.471 253.368C44.4265 241.235 48.9406 231.132 57.0133 223.059C65.0862 214.986 75.1891 210.472 87.3224 209.516L87.3224 209.516ZM265.831 136.564C277.248 136.564 287.584 140.516 296.839 148.419C287.584 156.323 277.248 160.275 265.831 160.275C254.415 160.275 244.079 156.323 234.824 148.419C244.079 140.516 254.415 136.564 265.831 136.564L265.831 136.564ZM31.0076 136.564C42.4242 136.564 52.7601 140.516 62.0151 148.419C52.7601 156.323 42.4242 160.275 31.0076 160.275C19.5909 160.275 9.25504 156.323 0 148.419C9.25504 140.516 19.5909 136.564 31.0076 136.564L31.0076 136.564ZM253.368 43.471C252.412 55.6042 247.898 65.7072 239.825 73.78C231.753 81.8528 221.65 86.3669 209.516 87.3224C210.472 75.1892 214.986 65.0862 223.059 57.0133C231.132 48.9405 241.235 44.4264 253.368 43.471L253.368 43.471ZM43.471 43.471C55.6042 44.4264 65.7072 48.9405 73.78 57.0133C81.8528 65.0862 86.3669 75.1892 87.3224 87.3224C75.1891 86.3669 65.0862 81.8528 57.0133 73.78C48.9406 65.7072 44.4265 55.6042 43.471 43.471L43.471 43.471ZM148.419 0C156.323 9.25504 160.275 19.5909 160.275 31.0075C160.275 42.4242 156.323 52.7601 148.419 62.0151C140.516 52.7601 136.564 42.4242 136.564 31.0075C136.564 19.5909 140.516 9.25504 148.419 0L148.419 0Z" id="Combined-Shape#1" fill="#848484" fill-rule="evenodd" stroke="none" />
            <path d="M148.419 72.543C106.514 72.543 72.5431 106.514 72.5431 148.419C72.5431 190.325 106.514 224.296 148.419 224.296C190.325 224.296 224.296 190.325 224.296 148.419C224.296 106.514 190.325 72.543 148.419 72.543L148.419 72.543ZM148.419 87.3339C182.156 87.3339 209.505 114.683 209.505 148.419C209.505 182.156 182.156 209.505 148.419 209.505C114.683 209.505 87.3339 182.156 87.3339 148.419C87.3339 114.683 114.683 87.3339 148.419 87.3339L148.419 87.3339ZM148.419 100.626C121.848 100.626 100.308 122.166 100.308 148.738C100.308 172.638 117.736 192.468 140.576 196.212L140.576 183.333C124.763 179.763 112.954 165.629 112.954 148.738C112.954 129.15 128.832 113.272 148.419 113.272C168.006 113.272 183.885 129.15 183.885 148.738C183.885 165.629 172.076 179.762 156.264 183.332L156.263 196.212C179.103 192.467 196.531 172.637 196.531 148.738C196.531 122.166 174.99 100.626 148.419 100.626L148.419 100.626ZM148.419 125.769C135.91 125.769 125.769 135.91 125.769 148.419C125.769 160.929 135.91 171.07 148.419 171.07C160.929 171.07 171.07 160.929 171.07 148.419C171.07 135.91 160.929 125.769 148.419 125.769L148.419 125.769Z" id="Combined-Shape#2" fill="#848484" fill-rule="evenodd" stroke="none" />
          </g>
        </g>
      </g>
    </g>
  </g>
</svg>