<?xml version="1.0" encoding="utf-8"?>
<svg width="2000px" height="484px" viewBox="0 0 2000 484" version="1.1" xmlns:xlink="http://www.w3.org/1999/xlink" xmlns="http://www.w3.org/2000/svg">
  <defs>
    <path d="M0 0L2000 0L2000 311.66L0 311.66L0 0Z" id="path_1" />
    <clipPath id="mask_1">
      <use xlink:href="#path_1" />
    </clipPath>
  </defs>
  <g id="Group">
    <g id="quartz" transform="translate(0 76.339966)">
      <path d="M0 0L2000 0L2000 311.66L0 311.66L0 0Z" id="Background" fill="#FFFFFF" fill-opacity="0" fill-rule="evenodd" stroke="none" />
      <g clip-path="url(#mask_1)">
        <path d="M273.47 240.41C292.63 214.541 302.952 183.191 302.91 151C302.91 67.76 234.91 0 151.45 0C67.99 0 0 67.8 0 151C0 234.2 67.91 302 151.45 302C183.058 302.053 213.883 292.163 239.56 273.73L277.56 311.58L311.27 278L273.51 240.33L273.47 240.41ZM239.21 206.25L183.21 150.44L149.54 184.07L205.22 239.57C189.003 249.403 170.396 254.592 151.43 254.57C94.16 254.57 47.62 208.16 47.62 151.06C47.62 93.96 94.2 47.54 151.47 47.54C208.74 47.54 255.24 94 255.24 151.05C255.261 170.6 249.711 189.748 239.238 206.253L239.21 206.25Z" id="Shape" fill="#848484" fill-rule="evenodd" stroke="none" />
        <path d="M916.84 7.47998L858.28 7.47998L746.93 295.65L798.05 295.65L818.91 239.51L956.24 239.51L977.08 295.65L1028.22 295.65L916.84 7.47998L916.84 7.47998ZM837.48 194.59L887.61 64.51L937.61 194.59L837.48 194.59Z" id="Shape" fill="#848484" fill-rule="evenodd" stroke="none" />
        <path d="M652.5 7.47998L652.5 189.78C652.5 251.59 602.14 301.85 540.18 301.85C478.22 301.85 427.81 251.57 427.81 189.78L427.81 7.47998L476.55 7.47998L476.55 189.78C475.48 225.37 504.5 254.31 540.2 254.31C575.9 254.31 604.84 225.37 604.14 189.78L604.14 7.47998L652.5 7.47998" id="Shape" fill="#848484" fill-rule="evenodd" stroke="none" />
        <path d="M1282.42 198.05C1316.53 181.253 1338.16 146.569 1338.24 108.55C1338.24 55.73 1294.58 8.54998 1240.24 7.47998L1133.24 7.47998L1133.24 295.64L1182 295.64L1182 208.86L1226.2 208.86L1326.76 310.46L1360.66 277.06L1282.43 198.06L1282.42 198.05ZM1236.66 161.31L1182 161.31L1182 55.79L1236.67 55.79C1266.4 55.79 1290.6 79.45 1290.6 108.56C1290.6 137.67 1266.4 161.31 1236.67 161.31L1236.66 161.31Z" id="Shape" fill="#848484" fill-rule="evenodd" stroke="none" />
      </g>
    </g>
    <g id="T" fill="#848484" transform="translate(1399.9999 0)">
      <path d="M15.9091 140.722L15.9091 96.5454L248.011 96.5454L248.011 140.722L158.097 140.722L158.097 387.455L105.824 387.455L105.824 140.722L15.9091 140.722Z" />
    </g>
    <g id="Z" fill="#848484" transform="translate(1687.9999 0)">
      <path d="M23.2955 387.455L23.2955 354.642L172.443 140.722L22.4432 140.722L22.4432 96.5454L237.784 96.5454L237.784 129.358L88.7784 343.278L238.636 343.278L238.636 387.455L23.2955 387.455Z" />
    </g>
  </g>
</svg>